<?xml version="1.0" encoding="UTF-8" standalone="no"?>
<!-- Created with Inkscape (http://www.inkscape.org/) -->

<svg
   xmlns:dc="http://purl.org/dc/elements/1.1/"
   xmlns:cc="http://creativecommons.org/ns#"
   xmlns:rdf="http://www.w3.org/1999/02/22-rdf-syntax-ns#"
   xmlns:svg="http://www.w3.org/2000/svg"
   xmlns="http://www.w3.org/2000/svg"
   xmlns:sodipodi="http://sodipodi.sourceforge.net/DTD/sodipodi-0.dtd"
   xmlns:inkscape="http://www.inkscape.org/namespaces/inkscape"
   width="400mm"
   height="60mm"
   viewBox="0 0 400 60"
   version="1.1"
   id="svg8"
   inkscape:version="0.91 r13725"
   sodipodi:docname="aqueduct.svg">
  <defs
     id="defs2">
    <inkscape:path-effect
       effect="sketch"
       id="path-effect4644"
       is_visible="true"
       nbiter_approxstrokes="5"
       strokelength="100"
       strokelength_rdm="0.3;1"
       strokeoverlap="0"
       strokeoverlap_rdm="0;1"
       ends_tolerance="0;1"
       parallel_offset="1.5;1"
       tremble_size="1.5;1"
       tremble_frequency="0.01"
       nbtangents="1"
       tgt_places_rdmness="1;1"
       tgtscale="10"
       tgtlength="10"
       tgtlength_rdm="1;1" />
    <inkscape:path-effect
       effect="sketch"
       id="path-effect4533"
       is_visible="true"
       nbiter_approxstrokes="5"
       strokelength="100"
       strokelength_rdm="0.3;1"
       strokeoverlap="0"
       strokeoverlap_rdm="0;1"
       ends_tolerance="0;1"
       parallel_offset="1.5;1"
       tremble_size="1.4;1"
       tremble_frequency="0.1"
       nbtangents="4"
       tgt_places_rdmness="1;1"
       tgtscale="10"
       tgtlength="10"
       tgtlength_rdm="0;1" />
  </defs>
  <sodipodi:namedview
     id="base"
     pagecolor="#ffffff"
     bordercolor="#666666"
     borderopacity="1.0"
     inkscape:pageopacity="0.0"
     inkscape:pageshadow="2"
     inkscape:zoom="0.7"
     inkscape:cx="773.83381"
     inkscape:cy="392.39917"
     inkscape:document-units="mm"
     inkscape:current-layer="layer1"
     showgrid="false"
     inkscape:window-width="1600"
     inkscape:window-height="795"
     inkscape:window-x="-8"
     inkscape:window-y="-8"
     inkscape:window-maximized="1" />
  <metadata
     id="metadata5">
    <rdf:RDF>
      <cc:Work
         rdf:about="">
        <dc:format>image/svg+xml</dc:format>
        <dc:type
           rdf:resource="http://purl.org/dc/dcmitype/StillImage" />
        <dc:title />
      </cc:Work>
    </rdf:RDF>
  </metadata>
  <g
     inkscape:label="Layer 1"
     inkscape:groupmode="layer"
     id="layer1"
     transform="translate(0,-237)">
    <g
       transform="translate(-35.851268,76.271966)"
       aria-label="П"
       style="font-style:normal;font-weight:normal;font-size:10.58333302px;line-height:1.25;font-family:sans-serif;letter-spacing:0px;word-spacing:0px;fill:#000000;fill-opacity:1;stroke:#b4b4b4;stroke-width:0.26499999;stroke-miterlimit:4;stroke-dasharray:none;stroke-opacity:1"
       id="text4522-0" />
    <g
       transform="matrix(-1,0,0,1,257.85795,95.248103)"
       aria-label="П"
       style="font-style:normal;font-weight:normal;font-size:10.58333302px;line-height:1.25;font-family:sans-serif;letter-spacing:0px;word-spacing:0px;fill:#000000;fill-opacity:1;stroke:#b4b4b4;stroke-width:0.26499999;stroke-miterlimit:4;stroke-dasharray:none;stroke-opacity:1"
       id="text4522-0-6" />
    <g
       transform="matrix(-0.90310879,0,0,1,431.52389,127.67842)"
       aria-label="П"
       style="font-style:normal;font-weight:normal;font-size:10.58333302px;line-height:1.25;font-family:sans-serif;letter-spacing:0px;word-spacing:0px;fill:#000000;fill-opacity:1;stroke:#c9c9c9;stroke-width:0.13920744;stroke-linejoin:miter;stroke-miterlimit:4;stroke-dasharray:none;stroke-dashoffset:0;stroke-opacity:1"
       id="text4522-0-6-4"
       inkscape:path-effect="#path-effect4644">
      <path
         id="path4524-8-2-5"
         style="fill:none;fill-opacity:1;stroke:#c9c9c9;stroke-width:0.13920744;stroke-linejoin:miter;stroke-miterlimit:4;stroke-dasharray:none;stroke-dashoffset:0;stroke-opacity:1"
         d="m 245.65873,165.97099 c 1e-5,0.008 -2.3e-4,-0.0364 -2.2e-4,-0.0279 -2e-4,-0.018 -5.9e-4,-0.0447 -0.001,-0.0797 -0.002,-0.07 -0.005,-0.17337 -0.0105,-0.30787 -0.0119,-0.26902 -0.0354,-0.6626 -0.082,-1.16293 -0.0932,-1.00068 -0.27893,-2.42839 -0.64873,-4.14071 -0.7396,-3.42466 -2.21565,-7.98771 -5.16143,-12.54982 -2.94579,-4.56211 -7.36126,-9.12322 -13.9796,-12.54409 -6.61833,-3.42087 -15.43947,-5.70148 -27.19644,-5.70263 -5.22157,-5.2e-4 -9.82291,0.44871 -13.87738,1.24784 m -0.59639,-3.08577 c -5.07561,1.00045 -9.29437,2.54902 -12.80013,4.44999 -6.30675,3.41977 -10.30607,7.98002 -12.83544,12.54132 -2.52937,4.5613 -3.5888,9.12369 -4.01571,12.5478 -0.21346,1.71206 -0.26878,3.13955 -0.27065,4.14007 -9.3e-4,0.50026 0.0115,0.89377 0.0242,1.16274 0.006,0.13448 0.0128,0.23783 0.0176,0.30781 0.002,0.035 0.004,0.0616 0.006,0.0797 7e-4,0.009 0.002,0.0192 0.002,0.028 0,10e-6 0,2e-5 0,2e-5 -4.1678,-2e-4 -8.33561,-4.1e-4 -12.50342,-6.1e-4 0,0 1e-5,-1e-5 1e-5,-2e-5 -8.1e-4,0.009 0.003,-0.0369 0.002,-0.028 0.001,-0.018 0.003,-0.0447 0.006,-0.0797 0.005,-0.07 0.0113,-0.17335 0.0176,-0.30785 0.0127,-0.26899 0.0251,-0.66254 0.0242,-1.16285 -0.002,-1.00061 -0.0572,-2.42824 -0.27065,-4.14047 -0.10457,-0.83884 -0.2471,-1.74598 -0.43988,-2.70469 m -1.53098,1.85511 c -0.59446,-2.95509 -1.66651,-6.40006 -3.57657,-9.84444 -2.52974,-4.56183 -6.52948,-9.12267 -12.83672,-12.54317 -6.30725,-3.42051 -14.92203,-5.7007 -26.682007,-5.70131 -7.03816,-3.6e-4 -13.024489,0.81589 -18.116203,2.20451 m 1.779075,0.10933 c -3.415025,0.93215 -6.42748,2.12185 -9.084815,3.49539 -6.618289,3.42088 -11.03373,7.98199 -13.979493,12.5441 -2.945763,4.56211 -4.421799,9.12515 -5.161394,12.54981 -0.739592,3.42465 -0.74273,5.71084 -0.742739,5.71918 0,1e-5 0,2e-5 0,2e-5 -3.804466,3.8e-4 -7.608933,7.6e-4 -11.413401,0.001 0.0016,-11.82945 0.0032,-23.6589 0.0047,-35.48836 m -1.946435,-2.18914 c -3.52e-4,-3.90764 -7.03e-4,-7.81528 -0.0011,-11.72292 24.34568,-0.002 48.691428,-0.004 73.037238,-0.005 m 1.27301,1.40073 c 25.51844,0.002 51.03695,0.004 76.55553,0.006 m -1.2235,-0.13513 c 24.89364,3e-5 49.78735,5e-5 74.68112,6e-5 m 2.2681,-1.42975 c 23.41288,-6.9e-4 46.82573,-0.001 70.23853,-0.002 m -0.92994,1.13867 c 30.71863,0.002 61.4372,0.003 92.15572,0.005 m 0.59037,-1.37607 c 15.77786,0.002 31.55572,0.004 47.33361,0.007 -8.4e-4,14.54871 -0.002,29.09742 -0.002,43.64612 m -0.56897,1.31176 c 0,1.6e-4 5.3e-4,3.57374 5.3e-4,3.5739 -3.80442,1.6e-4 -7.60884,3.3e-4 -11.41326,4.9e-4 0,0 0,-1e-5 0,-2e-5 -1e-5,-0.008 -0.003,-2.29421 -0.74267,-5.71836 -0.73955,-3.42415 -2.21554,-7.98653 -5.16124,-12.54786 -2.9457,-4.56133 -7.3611,-9.12158 -13.97933,-12.5414 -6.61821,-3.41981 -15.43923,-5.69918 -27.19603,-5.69869 -0.24333,1e-5 -0.48531,0.001 -0.72596,0.003 m -1.44163,-1.65583 c -11.38636,0.0928 -19.77379,2.34916 -25.9486,5.69905 -6.30533,3.4207 -10.30346,7.98165 -12.83181,12.54363 -2.52834,4.56198 -3.58685,9.1249 -4.01308,12.54946 -0.42623,3.42456 -0.22017,5.71068 -0.21942,5.71898 0,2e-5 0,3e-5 0,3e-5 -4.16698,3.1e-4 -8.33397,6.2e-4 -12.50096,9.3e-4 0,0 0,0 0,-2e-5 7.5e-4,-0.008 0.20681,-2.29408 -0.21942,-5.71812 -0.2694,-2.16412 -0.79137,-4.78291 -1.7774,-7.56876 m -0.43451,1.61032 c -0.57409,-1.62196 -1.30546,-3.30053 -2.23585,-4.97896 -2.52848,-4.56142 -6.52678,-9.12178 -12.83231,-12.54171 -6.30551,-3.41993 -14.91822,-5.69942 -26.67538,-5.69906 -11.75714,3.6e-4 -20.57843,2.28037 -27.19689,5.70074 -1.32769,0.68613 -2.56673,1.41816 -3.72304,2.18688 m 1.95933,-0.14314 c -4.60911,3.06395 -7.90433,6.71048 -10.26025,10.35761 -2.94711,4.56234 -4.42434,9.12564 -5.1648,12.55044 -0.74046,3.4248 -0.74417,5.71112 -0.74418,5.71945 0,1e-5 0,2e-5 0,2e-5 -7.61083,0.001 -15.22166,0.002 -22.83248,0.003 0,0 0,-1e-5 0,-3e-5 1e-5,0.009 -2.4e-4,-0.0369 -2.2e-4,-0.028 -2.1e-4,-0.018 -6.2e-4,-0.0447 -0.001,-0.0797 -0.002,-0.07 -0.005,-0.17333 -0.0105,-0.3078 -0.0119,-0.26895 -0.0355,-0.66243 -0.0823,-1.16264 -0.0935,-1.00043 -0.27952,-2.42779 -0.64975,-4.13968 -0.60838,-2.81308 -1.71415,-6.3945 -3.72391,-10.11232 m 4.43943,15.38811 c 1e-5,0.008 -2.4e-4,-0.0364 -2.3e-4,-0.0279 -2e-4,-0.018 -6e-4,-0.0447 -0.001,-0.0797 -0.002,-0.07 -0.005,-0.17336 -0.0105,-0.30787 -0.0119,-0.269 -0.0354,-0.66257 -0.0821,-1.1629 -0.0934,-1.00066 -0.2792,-2.42835 -0.6492,-4.14063 -0.74001,-3.42459 -2.2166,-7.98756 -5.163,-12.54957 -2.94641,-4.562 -7.36259,-9.12301 -13.98177,-12.54374 -6.61917,-3.42073 -15.44132,-5.70118 -27.19961,-5.70212 -4.63741,-3.7e-4 -8.78566,0.35391 -12.49612,0.99293 m -0.51692,0.77982 c -5.69793,0.98219 -10.36356,2.6356 -14.18293,4.70722 -6.30668,3.42074 -10.30594,7.98176 -12.83526,12.54376 -2.52932,4.562 -3.58871,9.12499 -4.01559,12.54957 -0.21343,1.71228 -0.26874,3.13997 -0.2706,4.14062 -9.3e-4,0.50032 0.0115,0.89389 0.0242,1.16289 0.006,0.1345 0.0128,0.23786 0.0176,0.30786 0.002,0.035 0.004,0.0616 0.006,0.0797 7.1e-4,0.009 0.002,0.0192 0.002,0.028 0,1e-5 0,2e-5 0,2e-5 -4.16776,3.5e-4 -8.33553,7e-4 -12.50329,0.001 0,0 0,0 0,-2e-5 -8.1e-4,0.009 0.003,-0.0369 0.002,-0.028 0.001,-0.018 0.003,-0.0447 0.006,-0.0797 0.005,-0.07 0.0113,-0.17333 0.0176,-0.30781 0.0127,-0.26896 0.0251,-0.66246 0.0242,-1.1627 -0.002,-1.00048 -0.0572,-2.42792 -0.2706,-4.13992 -0.42687,-3.42399 -1.48626,-7.98622 -4.01556,-12.54735 -1.21046,-2.18283 -2.75758,-4.36541 -4.73314,-6.42285 m 0.8599,0.33217 c -2.15216,-2.24175 -4.81292,-4.33496 -8.101,-6.11809 -6.30591,-3.41969 -14.91909,-5.69891 -26.676897,-5.69821 -11.757789,7e-4 -20.57956,2.28095 -27.198429,5.70151 -6.618874,3.42057 -11.034813,7.98142 -13.981002,12.54329 -2.636355,4.08213 -4.095816,8.16504 -4.903759,11.43238 m -0.439189,-1.51746 c -0.09497,0.38399 -0.180941,0.75672 -0.258766,1.11685 -0.740032,3.42455 -0.743455,5.71069 -0.743465,5.71902 0,2e-5 0,3e-5 0,3e-5 0.01184,-1e-5 -11.426675,8.1e-4 -11.414832,8.1e-4 1.5e-4,-15.73685 3.02e-4,-31.47369 4.57e-4,-47.21053 10.819316,7.7e-4 21.638633,0.002 32.457952,0.002 m -0.165015,-0.41719 c 27.396283,7.4e-4 54.792595,0.001 82.188945,0.002 m -2.35691,2.22444 c 30.05514,-0.002 60.11029,-0.004 90.16542,-0.006 m 1.67833,-0.3456 c 31.49865,-0.001 62.99727,-0.002 94.49586,-0.003 m 0.80492,-0.5943 c 32.66643,-0.005 65.33295,-0.01 97.99955,-0.0141 m -0.13237,1.11569 c 12.23723,-6.5e-4 24.47446,-0.001 36.71169,-0.002 1.2e-4,15.73713 2.5e-4,31.47424 3.8e-4,47.21134 -3.6004,-2e-4 -7.20079,-4e-4 -10.80118,-6.1e-4 m -1.78202,-0.14719 c 0,0 -0.6137,-2e-5 -0.61371,-2e-5 0,0 0,-10e-6 0,-3e-5 -1e-5,-0.008 -0.004,-2.29439 -0.74383,-5.71878 -0.74025,-3.4244 -2.2172,-7.98716 -5.16398,-12.54888 -2.94678,-4.56173 -7.36341,-9.12244 -13.98311,-12.5428 -6.61969,-3.42036 -15.44245,-5.70037 -27.20155,-5.70073 -11.7591,-3.7e-4 -20.37323,2.27912 -26.67992,5.69903 -1.46225,0.79293 -2.80046,1.64717 -4.02506,2.54851 m 1.10686,-2.868 c -4.05644,2.98697 -6.86604,6.49085 -8.80838,9.99531 -2.52862,4.56225 -3.58737,9.12542 -4.01379,12.55016 -0.42641,3.42473 -0.22047,5.71098 -0.21972,5.71929 10e-6,1e-5 10e-6,2e-5 10e-6,2e-5 -4.16721,5.3e-4 -8.33442,0.001 -12.50162,0.002 0,0 0,-1e-5 0,-3e-5 7.5e-4,-0.008 0.20669,-2.29396 -0.21973,-5.71781 -0.42641,-3.42384 -1.48518,-7.98585 -4.0138,-12.54675 -2.52862,-4.56089 -6.52711,-9.12068 -12.83283,-12.53989 -2.06822,-1.12148 -4.38466,-2.12025 -6.97884,-2.95611 m 0.88291,2.48456 c -5.31591,-1.71331 -11.79791,-2.74286 -19.70016,-2.74289 -11.75914,-6e-5 -20.58193,2.27965 -27.20164,5.69974 -6.61971,3.4201 -11.03637,7.9806 -13.98317,12.54213 -0.80384,1.24433 -1.49832,2.48873 -2.0983,3.71009 m 0.5197,1.1956 c -1.5991,3.25566 -2.5267,6.34754 -3.06478,8.8375 -0.73991,3.42398 -0.74326,5.70976 -0.74326,5.71809 0,2e-5 0,2e-5 0,2e-5 -7.60964,-6.8e-4 -15.21927,-0.001 -22.8289,-0.002 0,0 0,0 0,-2e-5 1e-5,0.009 -2.3e-4,-0.0369 -2.2e-4,-0.028 -2.1e-4,-0.018 -6e-4,-0.0447 -0.001,-0.0797 -0.002,-0.07 -0.005,-0.17337 -0.0105,-0.30787 -0.0119,-0.26901 -0.0354,-0.66259 -0.0821,-1.16292 -0.0933,-1.00066 -0.27914,-2.42836 -0.6491,-4.14066 -0.73991,-3.42461 -2.21638,-7.98761 -5.16264,-12.54966 -2.94627,-4.56204 -7.36229,-9.12309 -13.98127,-12.54387 -2.98109,-1.54067 -6.40904,-2.85004 -10.35082,-3.82403 m 29.70901,34.66347 c 2e-5,0.008 -2.3e-4,-0.0364 -2.2e-4,-0.0279 -2.1e-4,-0.018 -6.1e-4,-0.0447 -0.001,-0.0797 -0.002,-0.07 -0.005,-0.17334 -0.0105,-0.30783 -0.0119,-0.26897 -0.0355,-0.66248 -0.0823,-1.16274 -0.0935,-1.00052 -0.27952,-2.42801 -0.64974,-4.14005 -0.74045,-3.42408 -2.21766,-7.98643 -5.16475,-12.54767 -2.94709,-4.56124 -7.36408,-9.12142 -13.98418,-12.54112 -6.62011,-3.41971 -15.44338,-5.69895 -27.20314,-5.6983 -3.01363,1.7e-4 -5.8207,0.15004 -8.43533,0.43044 m -0.65972,0.31219 c -7.58733,0.81381 -13.55386,2.72705 -18.24409,5.27104 -6.30634,3.42056 -10.30531,7.98141 -12.83438,12.54328 -2.52907,4.56187 -3.58823,9.12473 -4.01494,12.54921 -0.21336,1.71224 -0.2686,3.13989 -0.27041,4.14051 -9e-4,0.50031 0.0115,0.89386 0.0243,1.16286 0.006,0.1345 0.0128,0.23785 0.0177,0.30785 0.002,0.035 0.004,0.0616 0.006,0.0797 7e-4,0.009 0.002,0.0192 0.002,0.028 0,2e-5 1e-5,3e-5 1e-5,3e-5 -4.16757,2.3e-4 -8.33514,4.6e-4 -12.5027,6.9e-4 0,0 0,0 0,-2e-5 -8e-4,0.009 0.003,-0.0369 0.002,-0.028 0.001,-0.018 0.003,-0.0447 0.006,-0.0797 0.005,-0.07 0.0113,-0.17334 0.0177,-0.30782 0.0127,-0.26896 0.0252,-0.66247 0.0243,-1.16273 -0.002,-1.00051 -0.0571,-2.42799 -0.2704,-4.14004 -0.32179,-2.5822 -1.00327,-5.81173 -2.40358,-9.19996 m -0.97263,-3.42668 c -0.45664,-1.10488 -0.98969,-2.22663 -1.61161,-3.34833 -2.52941,-4.56208 -6.52876,-9.12316 -12.83555,-12.54399 -6.30679,-3.42082 -14.92103,-5.70139 -26.680267,-5.7025 -11.759208,-0.001 -20.582059,2.2778 -27.201814,5.69724 -6.619749,3.41943 -11.036445,7.9794 -13.983268,12.54045 -0.491842,0.76126 -0.942737,1.52256 -1.356095,2.27859 m 0.59226,3.37264 c -2.06314,3.77463 -3.191077,7.41793 -3.807733,10.27108 -0.740199,3.42475 -0.74373,5.71104 -0.74374,5.71937 0,2e-5 0,2e-5 0,2e-5 -3.805125,5.1e-4 -7.610249,0.001 -11.415373,0.002 -5.93e-4,-15.7359 -0.0012,-31.4718 -0.0017,-47.20773 2.225379,2.9e-4 4.450759,5.8e-4 6.67614,8.7e-4 m 3.518681,-2.3194 c 27.631083,7.1e-4 55.262149,0.001 82.893199,0.002 m -1.05726,1.076 c 30.52266,-7e-5 61.04524,-1.1e-4 91.56775,-1.1e-4 m -0.96619,-1.33583 c 31.33964,-0.001 62.67931,-0.002 94.01901,-0.003 m 1.52787,-1.3681 c 29.50908,7.3e-4 59.01809,0.001 88.52702,0.002 m -3.12859,4.66179 c 23.4473,0.001 46.89462,0.002 70.34197,0.004 -2.3e-4,7.34658 -4.5e-4,14.69316 -6.7e-4,22.03974 m 0.5068,-4.704 c -0.001,8.3906 -0.002,16.7812 -0.003,25.17181 -3.80546,-5.3e-4 -7.61092,-0.001 -11.41638,-0.002 0,0 0,-1e-5 0,-3e-5 -1e-5,-0.008 -0.004,-2.29463 -0.74424,-5.71939 -0.7405,-3.42477 -2.21777,-7.98802 -5.16494,-12.55031 -2.47365,-3.82929 -5.98281,-7.6579 -10.96105,-10.8122 m 0.95823,3.30279 c -0.95272,-0.60369 -1.95926,-1.18266 -3.02267,-1.7322 -6.61865,-3.42034 -15.44018,-5.70033 -27.19766,-5.70066 -11.7575,-3.3e-4 -20.37047,2.27917 -26.67621,5.69911 -6.30575,3.41993 -10.30425,7.98029 -12.8329,12.54171 -2.52865,4.56143 -3.58745,9.12389 -4.01389,12.54808 -0.42643,3.42419 -0.22051,5.71009 -0.21976,5.71839 0,1e-5 0,2e-5 0,2e-5 2.2e-4,0 -2.19632,-6e-5 -2.1961,-6e-5 m 1.3161,0.88169 c -3.4351,1.8e-4 -6.87021,3.6e-4 -10.30532,5.4e-4 0,0 0,-1e-5 0,-2e-5 7.5e-4,-0.008 0.20674,-2.29414 -0.2196,-5.71825 -0.42634,-3.42411 -1.485,-7.98646 -4.01352,-12.54776 -2.52851,-4.56129 -6.52686,-9.12152 -12.83243,-12.54128 -6.30556,-3.41977 -14.91833,-5.69907 -26.67558,-5.69846 -8.19496,4.2e-4 -14.96359,1.10833 -20.55411,2.93795 m -2.36567,-4.72764 c -2.4304,0.79526 -4.63818,1.72689 -6.64372,2.76321 -6.61929,3.42035 -11.03559,7.98105 -13.98208,12.54278 -2.94648,4.56173 -4.42316,9.12447 -5.16323,12.54887 -0.74006,3.4244 -0.7435,5.71046 -0.74351,5.71879 0,2e-5 0,2e-5 0,2e-5 -7.60995,2.4e-4 -15.2199,4.8e-4 -22.82984,7.2e-4 0,0 0,0 0,-2e-5 10e-6,0.009 -2.3e-4,-0.0369 -2.2e-4,-0.028 -2.1e-4,-0.018 -6.1e-4,-0.0447 -0.001,-0.0797 -0.002,-0.07 -0.005,-0.17334 -0.0105,-0.30783 -0.0119,-0.26898 -0.0354,-0.6625 -0.0821,-1.16277 -0.0737,-0.79014 -0.20515,-1.84655 -0.4394,-3.09911 m 1.47107,9.87831 c 2e-5,0.008 -2.2e-4,-0.0364 -2.1e-4,-0.0279 -2.2e-4,-0.018 -6.2e-4,-0.0447 -0.001,-0.0797 -0.002,-0.07 -0.005,-0.17334 -0.0105,-0.30783 -0.0119,-0.26897 -0.0355,-0.66249 -0.0823,-1.16275 -0.0935,-1.00051 -0.27954,-2.42801 -0.64978,-4.14005 -0.74048,-3.42409 -2.21773,-7.98646 -5.16486,-12.54771 -2.94713,-4.56125 -7.36418,-9.12145 -13.98433,-12.54117 -6.62017,-3.41973 -15.4435,-5.699 -27.20332,-5.69838 -9.07403,4.7e-4 -16.27546,1.35817 -21.98913,3.54971 m -0.10681,-2.3602 c -1.69112,0.64836 -3.2519,1.36979 -4.69232,2.15071 -6.30688,3.41926 -10.30633,7.97912 -12.8358,12.54005 -2.52947,4.56094 -3.58899,9.12302 -4.01597,12.54689 -0.21349,1.71193 -0.26884,3.13933 -0.27072,4.13978 -9.5e-4,0.50022 0.0115,0.89371 0.0242,1.16266 0.006,0.13447 0.0128,0.23781 0.0176,0.30779 0.002,0.035 0.004,0.0616 0.006,0.0797 7e-4,0.009 0.002,0.0192 0.002,0.028 0,1e-5 0,2e-5 0,2e-5 -4.16788,-4.9e-4 -8.33577,-9.8e-4 -12.50365,-0.001 0,0 0,-1e-5 0,-2e-5 -8.1e-4,0.009 0.003,-0.0369 0.002,-0.028 0.001,-0.018 0.003,-0.0447 0.006,-0.0797 0.005,-0.07 0.0113,-0.17336 0.0176,-0.30787 0.0127,-0.26901 0.0251,-0.66259 0.0242,-1.16293 -0.002,-1.00068 -0.0572,-2.42841 -0.27072,-4.14075 -0.42698,-3.42469 -1.48649,-7.98783 -4.01595,-12.54999 -2.52946,-4.56217 -6.52887,-9.12336 -12.83572,-12.54431 -0.67207,-0.36454 -1.37034,-0.71614 -2.09582,-1.05341 m 2.05803,1.93294 c -6.08241,-2.82702 -14.07791,-4.64683 -24.583791,-4.64689 -11.758899,-7e-5 -20.58151,2.27961 -27.201075,5.6997 -6.619562,3.42008 -11.036089,7.98057 -13.982777,12.54209 -0.603968,0.93495 -1.146188,1.86995 -1.632972,2.79518 m -0.547994,-1.3355 c -1.888532,3.58933 -2.942957,7.03166 -3.531679,9.75439 -0.740497,3.42467 -0.744223,5.71092 -0.744234,5.71924 0,1e-5 0,2e-5 0,2e-5 -3.80545,4.2e-4 -7.610899,8.3e-4 -11.416348,0.001 -0.0019,-15.73626 -0.0039,-31.47254 -0.0058,-47.20883 3.8e-5,0 1.754254,1.9e-4 1.754292,1.9e-4 m -1.396858,-0.28956 c 24.072361,-8.4e-4 48.144772,-0.002 72.217233,-0.002 m -0.61176,1.64312 c 29.54392,0.003 59.08788,0.006 88.63189,0.008 m 0.24701,-1.09824 c 32.86486,-4e-5 65.72972,-7e-5 98.59458,-8e-5 m -1.38364,-0.71477 c 30.40628,-0.002 60.81257,-0.004 91.21885,-0.005 m 1.44521,-0.33438 c 27.19804,-6.7e-4 54.39601,-0.001 81.59393,-0.002 -4e-5,6.057 -7e-5,12.114 -1.1e-4,18.17099 m -0.10509,0.52978 c 0.001,9.68008 0.003,19.36016 0.004,29.04024 0.0223,1e-5 -11.43567,-8.8e-4 -11.41342,-8.8e-4 0,0 0,-1e-5 0,-2e-5 -10e-6,-0.008 -0.003,-2.29448 -0.74275,-5.71905 -0.7396,-3.42458 -2.21565,-7.98752 -5.16143,-12.54951 -2.94579,-4.56199 -7.36127,-9.12296 -13.97961,-12.54367 -3.89387,-2.01256 -8.55024,-3.63041 -14.1184,-4.62153 m 0.0931,-2.28962 c -3.89668,-0.69359 -8.23979,-1.08039 -13.0805,-1.08091 -11.75917,-0.001 -20.37336,2.27755 -26.6801,5.69691 -6.30673,3.41937 -10.30605,7.97929 -12.83541,12.54029 -2.52937,4.56101 -3.5888,9.12314 -4.01571,12.54705 -0.42691,3.42392 -0.22129,5.70966 -0.22054,5.71795 0,10e-6 0,2e-5 0,2e-5 -4.16781,-4.4e-4 -8.33561,-8.8e-4 -12.50342,-0.001 0,0 0,-1e-5 0,-3e-5 5.2e-4,-0.006 0.1,-1.11129 0.0174,-2.93432 m 2.03275,1.46309 c -0.0362,-0.80052 -0.10747,-1.73943 -0.23765,-2.78434 -0.42657,-3.42404 -1.48554,-7.98633 -4.0144,-12.54754 -2.52885,-4.56121 -6.52759,-9.12134 -12.83362,-12.541 -6.30604,-3.41966 -14.91937,-5.69883 -26.67738,-5.69805 -9.24961,6e-4 -16.68226,1.41189 -22.65485,3.67924 m -2.34721,-1.69316 c -1.61997,0.61453 -3.13255,1.29203 -4.54487,2.02144 -6.62021,3.41911 -11.03729,7.97883 -13.98445,12.53964 -2.94716,4.56082 -4.42444,9.12283 -5.16493,12.54664 -0.74049,3.42382 -0.74422,5.70952 -0.74423,5.71784 0,2e-5 0,2e-5 0,2e-5 -7.6109,-0.001 -15.22179,-0.002 -22.83267,-0.003 0,0 0,-1e-5 0,-2e-5 1e-5,0.009 -2.4e-4,-0.0369 -2.3e-4,-0.028 -2.1e-4,-0.018 -6.1e-4,-0.0447 -0.001,-0.0797 -0.002,-0.07 -0.005,-0.17337 -0.0105,-0.30788 -0.0119,-0.26902 -0.0355,-0.66261 -0.0823,-1.16296 -0.0935,-1.00071 -0.27955,-2.42846 -0.64979,-4.14083 -0.68948,-3.18885 -2.01774,-7.36474 -4.57658,-11.60783 m 3.10242,21.05076 c 1e-5,0.008 -2.3e-4,-0.0364 -2.2e-4,-0.0279 -2.1e-4,-0.018 -6.1e-4,-0.0447 -0.001,-0.0797 -0.002,-0.07 -0.005,-0.17334 -0.0105,-0.30783 -0.0119,-0.26897 -0.0354,-0.6625 -0.0821,-1.16277 -0.0934,-1.00053 -0.27923,-2.42805 -0.64924,-4.14013 -0.74003,-3.42417 -2.21667,-7.98659 -5.1631,-12.54796 -2.94644,-4.56135 -7.36268,-9.12165 -13.9819,-12.54151 -6.61921,-3.41986 -15.44141,-5.69928 -27.19976,-5.69886 -4.39813,1.6e-4 -8.35629,0.31926 -11.91828,0.89767 m 1.80388,-2.26454 c -5.96097,0.9676 -10.81248,2.6615 -14.75993,4.80224 -6.30626,3.41995 -10.30518,7.98033 -12.8342,12.54176 -2.52903,4.56143 -3.58815,9.12392 -4.01483,12.54811 -0.21334,1.7121 -0.26857,3.13963 -0.27037,4.14017 -9e-4,0.50027 0.0116,0.89379 0.0243,1.16276 0.006,0.13449 0.0128,0.23784 0.0177,0.30783 0.002,0.035 0.004,0.0616 0.006,0.0797 7e-4,0.009 0.002,0.0192 0.002,0.028 0,2e-5 0,3e-5 0,3e-5 -0.0988,-1e-5 -12.40376,-3.2e-4 -12.50259,-3.3e-4 0,0 0,0 0,-2e-5 -8.1e-4,0.009 0.003,-0.0369 0.002,-0.028 0.001,-0.018 0.003,-0.0447 0.006,-0.0797 0.005,-0.07 0.0113,-0.17335 0.0177,-0.30784 0.0127,-0.26899 0.0252,-0.66253 0.0243,-1.16283 -0.002,-1.00059 -0.057,-2.42819 -0.27037,-4.14037 -0.42668,-3.42438 -1.48581,-7.9871 -4.01484,-12.5488 -1.93815,-3.49592 -4.7396,-6.99124 -8.78126,-9.97315 m 0.86636,1.23299 c -1.23236,-0.90895 -2.57999,-1.77017 -4.05359,-2.56913 -6.30721,-3.41969 -14.92195,-5.6989 -26.681855,-5.69817 -11.759887,7.3e-4 -20.583231,2.28101 -27.203415,5.7016 -6.620175,3.42059 -11.037207,7.98149 -13.984342,12.54338 -0.293302,0.45401 -0.572046,0.90802 -0.836953,1.36092 m -0.869132,-0.77847 c -2.396712,4.09695 -3.660742,8.10291 -4.327391,11.18597 -0.740328,3.4238 -0.743943,5.70949 -0.743953,5.71781 0,2e-5 0,2e-5 0,2e-5 -3.805266,-5.2e-4 -7.61053,-0.001 -11.415793,-0.002 -0.0012,-15.74012 -0.0023,-31.48021 -0.0034,-47.22027 1.756584,-2.3e-4 3.513169,-4.7e-4 5.269754,-7e-4 m 2.923981,-0.97332 c 26.302268,-0.001 52.604478,-0.003 78.906625,-0.004 m -4.38319,1.00037 c 29.82075,9.4e-4 59.6415,0.002 89.46225,0.003 m 2.88541,-1.53787 c 29.30611,-0.002 58.61227,-0.004 87.91845,-0.006 m -1.40673,2.15024 c 31.69501,4e-5 63.38997,4e-5 95.08489,2e-5 m 0.82526,-0.32814 c 25.4414,-0.003 50.88283,-0.006 76.32431,-0.009 m -0.54696,-2.1471 c 0,0 1.04722,-2e-5 1.04723,-2e-5 -0.001,15.73777 -0.003,31.47555 -0.004,47.21333 -3.80528,-5e-5 -7.61056,-1e-4 -11.41584,-1.5e-4 0,0 0,0 0,-2e-5 -10e-6,-0.008 -0.004,-2.29435 -0.74397,-5.71868 -0.4544,-2.10175 -1.18633,-4.63233 -2.3653,-7.32829 m 0.82614,3.05951 c -0.742,-1.69636 -1.66103,-3.4582 -2.79932,-5.21988 -2.9472,-4.56121 -7.36433,-9.12136 -13.98458,-12.54102 -6.62027,-3.41966 -15.44372,-5.69886 -27.2037,-5.69813 -11.76,7.2e-4 -20.37478,2.28099 -26.68202,5.70157 -3.58158,1.94239 -6.41909,4.25247 -8.66587,6.72164 m -0.36316,-1.1072 c -1.7096,1.87896 -3.07711,3.85006 -4.1701,5.82136 -2.52923,4.56163 -3.58853,9.1243 -4.01534,12.54863 -0.42681,3.42432 -0.22113,5.71033 -0.22038,5.71862 0,2e-5 0,2e-5 0,2e-5 -4.16769,6e-5 -8.33537,1.2e-4 -12.50306,1.7e-4 0,0 0,0 0,-2e-5 7.5e-4,-0.008 0.20643,-2.29423 -0.22037,-5.71847 -0.42681,-3.42423 -1.4861,-7.98678 -4.01531,-12.54827 -2.14752,-3.87311 -5.35479,-7.74547 -10.13446,-10.91961 m 2.34582,1.75682 c -0.8495,-0.56428 -1.74867,-1.10651 -2.70039,-1.62278 -6.30651,-3.42097 -14.9204,-5.70173 -26.67918,-5.70309 -11.75875,-0.001 -20.58126,2.27737 -27.20073,5.69664 -6.2757,3.2417 -10.57127,7.50857 -13.51147,11.82961 m -0.0684,-1.63176 c -0.16102,0.2367 -0.31798,0.47356 -0.47098,0.71042 -2.94595,4.56088 -4.42217,9.12288 -5.16189,12.54673 -0.73972,3.42386 -0.74294,5.70955 -0.74295,5.71788 0,1e-5 0,2e-5 0,2e-5 -7.60921,-9.5e-4 -15.21843,-0.002 -22.82766,-0.003 0,0 0,-1e-5 0,-3e-5 1e-5,0.009 -2.3e-4,-0.0369 -2.2e-4,-0.028 -2e-4,-0.018 -6e-4,-0.0447 -0.001,-0.0797 -0.002,-0.07 -0.005,-0.17337 -0.0105,-0.30788 -0.0119,-0.26902 -0.0354,-0.66261 -0.082,-1.16296 -0.0933,-1.0007 -0.27901,-2.42844 -0.64888,-4.14081 -0.73972,-3.42474 -2.21595,-7.98789 -5.16193,-12.55013 -1.54743,-2.39639 -3.50036,-4.79252 -5.96507,-7.02328 m 200.25603,-22.04467 6.95313,0"
         inkscape:connector-curvature="0"
         sodipodi:nodetypes="csccsccccccsccscc"
         inkscape:original-d="m 244.74467,163.60388 c 0,0 -0.0335,-36.50914 -47.08889,-36.50914 -47.05534,0 -43.74801,36.50914 -43.74801,36.50914 h -12.5027 c 0,0 3.30733,-36.50914 -43.748016,-36.50914 -47.055346,0 -47.088885,36.50914 -47.088885,36.50914 H 39.153229 V 116.38996 H 473.16599 v 47.21392 h -11.41494 c 0,0 -0.0335,-36.50914 -47.08889,-36.50914 -47.05534,0 -43.74801,36.50914 -43.74801,36.50914 h -12.5027 c 0,0 3.30733,-36.50914 -43.74802,-36.50914 -47.05534,0 -47.08888,36.50914 -47.08888,36.50914 z" />
    </g>
  </g>
</svg>
